<svg width="214" height="214" viewBox="0 0 214 214" fill="none" xmlns="http://www.w3.org/2000/svg">
<path d="M179.418 171.08C179.384 171.088 179.349 171.088 179.315 171.08L176.443 169.98C176.403 169.965 176.367 169.939 176.339 169.907C176.312 169.874 176.293 169.834 176.285 169.792C176.263 169.71 174.461 161.51 180.963 151.358C185.602 144.116 192.185 139.802 195.943 141.514C196.662 141.814 197.291 142.295 197.768 142.911C198.245 143.527 198.554 144.256 198.665 145.028C198.747 145.916 198.602 146.811 198.243 147.628C197.885 148.444 197.324 149.157 196.615 149.697C196.281 149.971 195.759 150.335 195.112 150.801C191.072 153.669 181.609 160.384 179.644 170.875C179.637 170.912 179.623 170.947 179.601 170.978C179.58 171.009 179.552 171.035 179.52 171.054C179.488 171.07 179.453 171.079 179.418 171.08ZM176.764 169.518L179.221 170.464C181.361 159.939 190.777 153.237 194.838 150.348C195.485 149.89 195.994 149.526 196.315 149.265C196.949 148.781 197.451 148.145 197.775 147.415C198.098 146.686 198.232 145.887 198.164 145.092C198.067 144.408 197.792 143.762 197.366 143.219C196.94 142.676 196.378 142.254 195.737 141.997C192.198 140.371 185.893 144.604 181.386 151.64C175.48 160.872 176.554 168.422 176.764 169.518Z" fill="#347928"/>
<path d="M177.787 170.455H177.753C177.684 170.448 177.621 170.414 177.577 170.36C177.533 170.306 177.511 170.238 177.517 170.169C178.493 157.757 187.926 146.757 193.743 144.917C193.775 144.906 193.81 144.902 193.844 144.906C193.878 144.909 193.911 144.919 193.941 144.935C193.971 144.952 193.997 144.974 194.018 145.001C194.04 145.028 194.055 145.059 194.064 145.092C194.084 145.158 194.078 145.229 194.047 145.291C194.016 145.352 193.962 145.399 193.897 145.422C188.145 147.232 178.951 158.463 178.048 170.216C178.044 170.281 178.014 170.343 177.965 170.388C177.917 170.432 177.853 170.457 177.787 170.455Z" fill="#347928"/>
<path d="M176.546 169.98C176.509 169.989 176.471 169.989 176.434 169.98L174.496 169.124C174.456 169.108 174.422 169.082 174.395 169.049C174.368 169.017 174.35 168.978 174.341 168.936C174.341 168.816 171.936 156.614 176.053 140.975C178.155 133.01 183.496 125.597 188.748 123.35C191.273 122.267 193.644 122.357 195.793 123.611C197.008 124.317 197.723 125.246 197.933 126.371C198.468 129.47 195.01 133.626 191.346 138.026C188.778 141.103 186.137 144.287 184.785 147.202C184.771 147.233 184.751 147.261 184.726 147.284C184.701 147.308 184.672 147.325 184.64 147.337C184.608 147.349 184.574 147.354 184.54 147.352C184.506 147.35 184.473 147.341 184.442 147.326C184.381 147.294 184.335 147.24 184.312 147.175C184.29 147.109 184.294 147.038 184.322 146.975C185.701 143.979 188.376 140.782 190.961 137.679C194.539 133.378 197.924 129.316 197.432 126.457C197.265 125.49 196.653 124.706 195.562 124.069C193.554 122.9 191.333 122.819 188.962 123.838C183.826 126.029 178.63 133.296 176.55 141.12C172.698 155.749 174.564 167.322 174.812 168.696L176.623 169.479C176.686 169.508 176.735 169.561 176.761 169.625C176.786 169.69 176.786 169.762 176.76 169.826C176.742 169.869 176.712 169.906 176.674 169.933C176.637 169.961 176.592 169.977 176.546 169.98Z" fill="#347928"/>
<path d="M176.764 162.4C176.73 162.399 176.696 162.39 176.665 162.376C176.634 162.361 176.606 162.34 176.583 162.315C176.56 162.289 176.542 162.26 176.531 162.227C176.519 162.195 176.514 162.161 176.516 162.126C176.854 142.828 188.662 128.631 191.975 126.333C192.003 126.314 192.035 126.3 192.068 126.294C192.101 126.287 192.135 126.287 192.168 126.294C192.201 126.301 192.233 126.314 192.261 126.333C192.288 126.352 192.312 126.377 192.33 126.406C192.368 126.464 192.382 126.535 192.369 126.603C192.356 126.671 192.318 126.732 192.262 126.774C188.996 129.038 177.359 143.038 177.025 162.139C177.026 162.174 177.019 162.208 177.006 162.24C176.993 162.272 176.974 162.301 176.95 162.325C176.926 162.35 176.897 162.369 176.865 162.382C176.833 162.395 176.798 162.401 176.764 162.4Z" fill="#347928"/>
<path d="M110.445 156.396C94.481 165.615 94.481 180.56 110.445 189.78C126.41 198.999 152.3 198.994 168.268 189.78C184.237 180.565 184.233 165.615 168.268 156.396C152.304 147.176 126.414 147.176 110.445 156.396Z" fill="#E0E0E0"/>
<path d="M122.524 185.778C122.524 185.778 110.685 181.498 106.829 175.257C107.184 168.324 107.852 155.873 107.954 155.959L130.266 158.266L125.558 177.83L122.524 185.778Z" fill="#37474F"/>
<path d="M122.524 183.017V185.778C130.814 189.176 146.26 189.244 156.284 185.97C163.089 183.749 169.004 179.978 171.029 177.654L170.267 158.27H109.919C109.919 161.227 111.742 169.924 113.831 173.545C115.919 177.166 122.524 183.017 122.524 183.017Z" fill="#455A64"/>
<path d="M115.132 83.8579C109.247 83.8579 105.716 84.9365 100.58 84.9579C87.3847 85.0135 80.0916 85.7839 80.0916 85.7839C80.0916 85.7839 62.9716 90.6246 64.1828 94.8276C65.7579 100.344 76.3038 104.068 90.0811 106.071C104.312 108.138 113.12 109.255 113.12 109.255L115.132 83.8579Z" fill="#37474F"/>
<path d="M118.582 47.6705C119.048 45.7873 119.536 43.9126 120.003 42.0294C120.234 41.2475 120.378 40.4422 120.431 39.6284C120.483 38.8087 120.267 37.9942 119.814 37.3086C119.476 36.8378 118.783 36.4526 118.338 36.8421C118.21 36.9627 118.108 37.1084 118.038 37.2701C116.549 40.1234 115.061 42.9768 113.574 45.8301C113.112 46.7669 112.586 47.6707 111.999 48.5351C111.413 49.3654 110.685 50.1443 110.321 51.1031C109.957 52.0618 108.558 54.6597 108.087 55.5671C107.081 57.5145 105.421 59.7187 101.954 62.1027C96.5311 65.8263 88.0781 68.5997 75.0669 75.3707C70.7869 77.5877 67.5427 82.5097 65.4925 86.8239C61.9401 94.2925 64.4525 98.0632 69.9908 98.0033C74.4121 97.9519 80.4683 96.7835 86.7641 92.191C97.156 84.5898 103.709 75.85 109.14 72.3832C110.484 71.3945 112.851 70.821 113.694 70.1063C115.346 68.7024 116.095 67.2044 116.493 65.0773C116.891 62.9501 116.754 60.7587 116.848 58.6016C116.93 56.8382 116.882 55.1776 117.251 53.4399C117.649 51.5097 118.128 49.5879 118.582 47.6705Z" fill="#FFA8A7"/>
<path d="M113.167 46.5833L113.565 45.8257L118.03 37.2657C118.099 37.1041 118.201 36.9584 118.329 36.8377C118.757 36.4654 119.468 36.8378 119.806 37.3043C120.258 37.9899 120.474 38.8043 120.422 39.624C120.369 40.4378 120.226 41.2432 119.994 42.0251C119.528 43.9083 119.04 45.783 118.573 47.6662C118.107 49.5494 117.64 51.5181 117.233 53.4356C116.865 55.1775 116.912 56.8339 116.831 58.5973C116.737 60.7373 116.874 62.9415 116.476 65.0729C116.078 67.2043 115.329 68.6981 113.677 70.1019C113.012 70.5444 112.292 70.8997 111.537 71.1591C109.791 67.6366 110.711 61.8287 111.464 56.6071C112.097 52.25 110.617 50.3625 113.167 46.5833Z" fill="#F28F8F"/>
<path d="M107.959 110.454C108.074 91.656 116.283 86.3232 119.536 84.8936L132.804 81.9404C136.887 82.3042 154.35 87.1278 159.156 88.2063C162.25 88.904 167.327 90.693 169.094 100.524C170.532 108.511 170.742 111.734 169.8 126.251C168.868 139.026 169.183 151.861 170.742 164.574C149.77 171.478 126.594 174.29 110.655 162.606C110.968 159.961 108.892 138.017 108.618 131.537C108.344 125.057 107.924 115.56 107.959 110.454Z" fill="#FAFAFA"/>
<path d="M127.082 84.3159C125.344 85.2318 117.447 92.8759 116.425 105.536C114.55 128.854 114.588 149.483 114.588 169.659C111.811 168.307 107.265 165.092 105.921 161.454C106.349 153.506 106.349 137.148 106.478 131.559C106.679 123.598 106.906 110.685 107.389 105.566C108.019 98.7566 109.499 88.6344 115.093 83.8793C121.115 83.2716 126.825 82.8008 126.825 82.8008L127.082 84.3159Z" fill="#347928"/>
<path d="M144.133 76.2952C144.895 71.7413 149.41 66.9819 151.443 63.0272C153.399 59.1752 154.564 56.222 154.328 52.6268C154.191 50.4868 152.843 47.6106 151.259 47.0114C153.07 39.0849 147.116 35.4255 143.958 34.6808C142.476 34.3784 141.016 33.9766 139.588 33.4781C137.876 32.7633 137.478 31.3852 136.091 30.2124C133.707 28.1966 129.671 28.1623 128.173 31.2268C126.585 29.181 124.432 29.2366 121.95 29.8743C119.583 30.4864 118.466 32.4937 118.714 34.6765C115.389 32.8275 112.346 35.1815 112.046 37.1332C111.824 38.5756 112.132 39.7911 111.19 41.0836C110.133 42.5388 108.126 42.5217 107.514 41.349C107.175 43.3948 107.976 44.9528 110.197 44.8329C109.821 45.4026 109.576 46.048 109.477 46.7233C109.379 47.3987 109.43 48.0873 109.628 48.7406C109.897 49.5609 110.409 50.2797 111.098 50.8006C111.786 51.3215 112.617 51.6196 113.48 51.6552C113.715 52.7809 113.767 53.7952 114.477 54.7754C115.147 55.7581 116.044 56.5643 117.092 57.1251C120.456 58.7172 124.176 59.2266 127.792 59.967L132.072 60.8487C132.325 60.8958 133.622 60.9728 133.784 61.1954L144.133 76.2952Z" fill="#263238"/>
<path d="M149.633 70.393C146.44 72.3148 144.968 70.2347 144.968 70.2347L145.332 86.8582C145.332 86.8582 138.484 95.7007 126.221 96.3127C125.34 93.6291 125.365 88.9083 126.029 87.436L125.883 80.7592C124.076 80.7963 122.267 80.7205 120.469 80.5324C116.9 80.053 113.878 77.2368 112.846 73.3762C111.772 69.3402 111.464 62.7361 112.329 57.8911C112.565 56.6562 112.627 55.3941 112.513 54.1419C112.157 50.8249 112.752 48.8903 113.6 46.0997C117.52 42.9283 128.631 42.2477 137.114 47.3837C135.308 51.7065 136.459 56.0978 140.131 58.0067C139.965 59.3677 139.802 62.8089 142.04 62.7147C143.654 62.6676 143.752 60.6432 145.404 58.8627C147.057 57.0822 150.913 56.59 152.415 59.2094C154.508 62.8773 153.134 68.2916 149.633 70.393Z" fill="#FFA8A7"/>
<path d="M125.883 80.7592C131.546 80.0744 135.843 79.4495 138.783 75.3407C140.624 72.7727 142.177 68.6211 142.177 68.6211C142.177 68.6211 141.612 73.6159 139.772 77.0399C138.355 79.6635 134.858 81.8549 125.986 82.6424L125.883 80.7592Z" fill="#F28F8F"/>
<path d="M128.04 58.3535C128.06 58.6975 128.18 59.0281 128.386 59.3043C128.592 59.5804 128.875 59.7897 129.199 59.9061C129.524 60.0226 129.875 60.041 130.21 59.959C130.544 59.8771 130.848 59.6984 131.081 59.4453C131.315 59.1922 131.469 58.8759 131.525 58.5358C131.58 58.1957 131.534 57.8468 131.392 57.5328C131.25 57.2187 131.019 56.9533 130.728 56.7697C130.436 56.5861 130.097 56.4924 129.752 56.5002C129.518 56.5085 129.288 56.5631 129.074 56.6609C128.861 56.7587 128.669 56.8978 128.51 57.0701C128.351 57.2424 128.228 57.4445 128.147 57.6648C128.066 57.885 128.03 58.1191 128.04 58.3535Z" fill="#263238"/>
<path d="M132.397 53.7652L128.995 51.1672C128.656 51.6372 128.511 52.2199 128.591 52.7939C128.671 53.3679 128.969 53.889 129.423 54.2488C129.648 54.418 129.905 54.5399 130.178 54.6073C130.451 54.6747 130.735 54.6862 131.013 54.641C131.291 54.5958 131.557 54.495 131.795 54.3445C132.033 54.1939 132.238 53.9969 132.397 53.7652Z" fill="#263238"/>
<path d="M118.517 50.7095L115.188 53.453C115.355 53.6804 115.568 53.8712 115.812 54.0134C116.056 54.1557 116.327 54.2464 116.608 54.2801C116.889 54.3138 117.173 54.2897 117.444 54.2093C117.715 54.1288 117.967 53.9938 118.184 53.8125C118.626 53.4362 118.907 52.9048 118.969 52.3275C119.031 51.7503 118.869 51.1712 118.517 50.7095Z" fill="#263238"/>
<path d="M115.132 57.9769C115.152 58.3206 115.273 58.6509 115.48 58.9264C115.686 59.2019 115.969 59.4105 116.294 59.5263C116.618 59.6421 116.969 59.6599 117.304 59.5775C117.638 59.4951 117.941 59.3162 118.174 59.063C118.407 58.8097 118.561 58.4934 118.616 58.1535C118.671 57.8135 118.625 57.4649 118.483 57.1511C118.341 56.8373 118.11 56.5721 117.819 56.3887C117.527 56.2052 117.188 56.1115 116.844 56.1193C116.609 56.1282 116.379 56.1833 116.166 56.2815C115.952 56.3798 115.761 56.5193 115.602 56.6919C115.442 56.8646 115.319 57.067 115.238 57.2875C115.158 57.508 115.122 57.7423 115.132 57.9769Z" fill="#263238"/>
<path d="M118.128 63.5837L123.692 66.0275L125.374 55.1563C123.264 54.4245 120.636 59.4278 118.128 63.5837Z" fill="#F28F8F"/>
<path d="M123.555 71.9896C124.462 72.5888 125.014 71.6815 126.602 71.0224C128.19 70.3632 129.688 71.1465 129.474 69.8282C129.252 68.433 126.799 67.6283 125.216 68.2874C123.632 68.9466 122.523 71.3048 123.555 71.9896Z" fill="#B16668"/>
<path d="M126.478 70.8896C126.331 70.9552 126.188 71.0295 126.05 71.1122C126.002 70.6077 126.15 70.1041 126.463 69.7057C126.776 69.3073 127.231 69.0446 127.732 68.9722C127.969 68.9205 128.214 68.9225 128.449 68.978C128.685 69.0336 128.905 69.1413 129.093 69.2932C129.184 69.4241 129.253 69.5686 129.299 69.7212C129.628 71.0052 128.066 70.2305 126.478 70.8896Z" fill="#F28F8F"/>
<path d="M167.553 89.8199L158.27 83.8579L145.25 83.1174C145.25 83.1174 141.826 90.8685 141.608 117.405C141.373 146.269 142.147 176.897 142.147 176.897C142.147 176.897 164.181 176.849 172.45 164.485C172.45 164.485 171.521 155.689 171.042 141.15C170.759 132.56 170.374 126.803 171.303 119.45C173.036 105.784 171.628 97.0916 167.553 89.8199Z" fill="#347928"/>
<path d="M142.665 96.5653L142.742 84.0934C142.742 84.0934 144.844 81.6709 145.186 80.2714L145.139 78.0672C145.139 78.0672 146.265 78.0458 146.423 79.608C146.581 81.1702 146.688 83.721 146.688 83.721L142.665 96.5653Z" fill="#37474F"/>
<path d="M119.018 95.0159L120.491 84.5813C120.491 84.5813 123.059 81.8036 124.642 80.7678H125.883L125.982 85.1891C123.144 88.0666 120.793 91.3853 119.018 95.0159Z" fill="#37474F"/>
<path d="M120.568 50.2299C120.456 50.0222 120.312 49.8342 120.14 49.6735C119.977 49.5141 119.783 49.3897 119.57 49.308C119.357 49.2263 119.13 49.189 118.903 49.1985C118.697 49.1985 118.821 49.5152 118.971 49.5366C119.121 49.558 119.177 49.5837 119.275 49.6093L119.339 49.635L119.395 49.6607H119.42C119.493 49.6992 119.562 49.742 119.634 49.7891L119.69 49.8319L119.784 49.9218L119.814 49.9517L119.844 49.986C119.872 50.0169 119.898 50.0498 119.921 50.0844L119.99 50.1829L120.011 50.2214L120.037 50.2727L120.088 50.3883L120.114 50.4525C120.114 50.4525 120.135 50.5167 120.114 50.491V50.5295C120.112 50.5509 120.112 50.5724 120.114 50.5937C120.131 50.6928 120.157 50.7902 120.191 50.8848C120.219 50.942 120.262 50.9908 120.315 51.026C120.362 51.0774 120.452 51.1416 120.512 51.0859C120.859 50.8933 120.696 50.5039 120.568 50.2299Z" fill="#F28F8F"/>
<path d="M128.657 49.7506C128.43 49.8419 128.229 49.9891 128.075 50.1786C127.93 50.3335 127.801 50.5027 127.689 50.6836C127.575 50.8641 127.48 51.0564 127.407 51.2571C127.365 51.3632 127.334 51.4738 127.317 51.5867C127.313 51.6394 127.313 51.6923 127.317 51.745C127.315 51.7807 127.315 51.8164 127.317 51.852C127.331 51.9181 127.351 51.9826 127.377 52.0446C127.403 52.1431 127.582 52.3014 127.664 52.1645C127.709 52.099 127.749 52.0304 127.784 51.959C127.784 51.8991 127.831 51.8435 127.852 51.7836C127.873 51.7236 127.916 51.591 127.955 51.4968C128.02 51.3158 128.102 51.1411 128.199 50.9746C128.296 50.8234 128.404 50.6803 128.524 50.5466C128.687 50.4025 128.83 50.2386 128.952 50.0587C129.029 49.8704 128.802 49.7078 128.657 49.7506Z" fill="#F28F8F"/>
<path d="M158.27 83.8579C169.338 83.7252 173.169 85.0306 181.528 87.3161C185.491 88.3989 197.304 91.2237 197.304 91.2237L208.128 103.229L205.406 109.568C201.626 111.652 191.367 110.317 180.154 111.567C175.677 112.067 172.942 113.775 171.572 116.959C171.101 118.059 163.573 118.98 160.016 110.111C156.798 102.078 156.134 91.9899 158.27 83.8579Z" fill="#37474F"/>
<path d="M163.115 64.8032C162.687 62.5134 163.042 59.2906 162.76 57.0992C162.477 54.9078 161.253 51.4924 161.048 48.7232C160.842 45.9541 160.453 45.6759 159.396 45.907C158.54 46.0953 157.388 47.97 157.808 50.9103C158.099 53.0717 159.871 63.2924 163.115 64.8032Z" fill="#F28F8F"/>
<path d="M156.862 47.6962C157.594 49.2241 158.886 50.6922 159.541 52.2586C160.23 53.8893 160.166 54.6726 160.757 57.8654C161.219 60.3521 161.185 62.5734 164.142 65.5694C169.398 70.9023 188.196 78.341 199.486 87.5087C203.796 91.0012 206.18 94.1984 207.678 99.4927C209.651 106.478 206.887 110.343 202.658 110.077C197.565 109.756 188.641 107.167 182.212 100.888C171.581 90.5047 161.506 80.2113 155.89 75.3578C154.521 74.0096 152.672 72.4174 151.829 71.463C150.249 69.6782 149.616 67.0375 149.381 64.6664C148.987 60.7416 147.412 57.7499 147.544 55.9651C147.253 54.2831 146.26 51.6851 145.383 48.993C144.874 47.465 144.317 46.1425 144.955 45.3636C145.107 45.2112 145.28 45.0815 145.469 44.9784C145.469 44.9784 145.413 44.7772 145.4 44.6916C145.259 44.131 145.175 43.5573 145.152 42.9796C145.101 42.419 145.263 41.8598 145.606 41.4131C145.741 41.269 145.906 41.1552 146.089 41.0793C146.089 41.0793 146.034 40.9252 145.969 40.7198C145.787 40.1686 145.726 39.5847 145.79 39.0078C145.82 38.7162 145.909 38.434 146.053 38.1785C146.196 37.9231 146.391 37.6998 146.624 37.5226C146.863 37.3536 147.149 37.2629 147.442 37.2629C147.734 37.2629 148.02 37.3536 148.259 37.5226C148.424 37.6663 148.568 37.8319 148.687 38.0148L149.663 39.3502C150.348 38.8237 150.793 39.1661 151.401 39.6883C152.145 40.3303 152.775 41.0921 153.455 41.794C154.082 42.3727 154.576 43.0791 154.906 43.8656C155.552 45.1239 156.241 46.4036 156.862 47.6962Z" fill="#FFA8A7"/>
<path d="M151.829 71.4759C149.886 69.4943 149.372 66.5625 149.089 63.926C148.807 61.2895 147.506 58.7001 147.544 55.978C147.577 56.6529 147.704 57.3198 147.921 57.9597C148.525 59.9028 149.205 61.8117 149.479 63.8703C149.74 66.5325 150.151 69.2931 151.829 71.4759Z" fill="#B16668"/>
<path d="M149.684 39.3074C150.493 40.326 152.347 42.5516 153.108 43.5874C154.183 45.064 154.568 46.9557 155.214 48.6463L155.771 50.3583C155.835 50.647 155.943 50.9241 156.092 51.1801C156.298 51.3941 156.528 51.585 156.776 51.7493C156.498 51.618 156.24 51.448 156.01 51.2443C155.629 50.7521 155.193 49.3097 154.927 48.7319C154.375 47.3281 153.875 45.8986 153.284 44.5161C152.201 42.8041 150.742 41.0921 149.701 39.3117L149.684 39.3074Z" fill="#B16668"/>
<path d="M146.102 41.0878C146.384 40.9547 146.703 40.9244 147.005 41.0022C147.322 41.0963 147.514 41.4302 147.673 41.6399C148.015 42.1235 148.383 42.6029 148.743 43.0822C149.513 44.0248 150.141 45.0744 150.609 46.1981C151.384 48.154 152.231 50.1057 152.693 52.1644C152.772 52.4571 152.798 52.7614 152.77 53.0632C152.696 52.4724 152.536 51.8956 152.295 51.3512C151.14 48.5949 150.271 45.7102 148.495 43.2663C148.165 42.7655 147.827 42.269 147.506 41.7554C147.356 41.4772 147.236 41.2247 146.967 41.1092C146.688 41.0209 146.389 41.0209 146.111 41.1092L146.102 41.0878Z" fill="#B16668"/>
<path d="M145.481 44.9826C146.453 44.6616 146.928 45.9755 147.343 46.6175C148.469 48.5221 149.081 50.6664 149.744 52.7636C149.86 53.1982 149.876 53.6531 149.791 54.0947C149.834 53.1959 149.363 52.4341 149.06 51.608C148.756 50.782 148.43 49.9688 148.118 49.147C147.805 48.3253 147.42 47.5506 147.069 46.7545C146.706 46.1082 146.419 44.8371 145.481 44.9826Z" fill="#B16668"/>
<path d="M90.4364 118.556C91.3566 117.46 93.0772 117.054 94.9475 117.465C93.3853 115.149 88.6602 114.409 85.9852 116.215C83.989 115.526 81.8911 115.177 79.7792 115.183C71.1208 115.183 64.1016 120.85 64.1016 127.839C64.1016 134.829 71.1208 140.495 79.7792 140.495C88.4376 140.495 95.444 134.82 95.444 127.831C95.444 124.163 93.5266 120.859 90.4364 118.556Z" fill="#EBEBEB"/>
<path d="M66.5968 127.009C66.613 126.681 66.6794 126.358 66.7937 126.05C66.9018 125.757 67.071 125.49 67.2902 125.267C67.5217 125.035 67.8006 124.856 68.1077 124.741C68.4795 124.601 68.8747 124.534 69.2718 124.544C69.6657 124.535 70.0577 124.6 70.4274 124.736C70.7369 124.849 71.0176 125.029 71.2492 125.263C71.4669 125.487 71.636 125.754 71.7457 126.046C71.8646 126.354 71.9325 126.679 71.9468 127.009C71.9468 127.125 71.9468 127.253 71.9468 127.39C71.9468 127.527 71.9468 127.677 71.9468 127.818C71.9468 127.959 71.9468 128.113 71.9468 128.246C71.9468 128.379 71.9468 128.516 71.9468 128.631C71.932 128.959 71.867 129.282 71.7542 129.59C71.6445 129.883 71.4755 130.149 71.2577 130.373C71.0228 130.604 70.7411 130.782 70.4317 130.895C69.6783 131.152 68.8611 131.152 68.1077 130.895C67.8008 130.782 67.522 130.604 67.2902 130.373C67.071 130.15 66.9018 129.883 66.7937 129.59C66.6794 129.282 66.613 128.959 66.5968 128.631C66.5968 128.517 66.5968 128.389 66.5968 128.246C66.5968 128.109 66.5968 127.964 66.5968 127.818C66.5968 127.673 66.5968 127.527 66.5968 127.39C66.5968 127.253 66.5925 127.116 66.5968 127.009ZM70.7184 127.056C70.7189 126.867 70.6812 126.68 70.6077 126.505C70.5342 126.331 70.4263 126.174 70.2904 126.042C70.0886 125.84 69.8317 125.702 69.5518 125.646C69.272 125.59 68.9819 125.618 68.7179 125.727C68.4539 125.835 68.2279 126.019 68.0682 126.256C67.9086 126.492 67.8226 126.771 67.8209 127.056C67.8209 127.287 67.8209 127.54 67.8209 127.822C67.8209 128.105 67.8209 128.362 67.8209 128.593C67.822 128.781 67.8604 128.967 67.9338 129.141C68.0073 129.314 68.1144 129.471 68.2489 129.603C68.5403 129.833 68.9007 129.958 69.2718 129.958C69.643 129.958 70.0033 129.833 70.2947 129.603C70.4308 129.472 70.5389 129.315 70.6125 129.142C70.6861 128.968 70.7236 128.781 70.7227 128.593C70.7227 128.362 70.7227 128.105 70.7227 127.822C70.7227 127.54 70.7313 127.287 70.7184 127.056Z" fill="white"/>
<path d="M77.2797 130.758C77.2801 130.79 77.2738 130.822 77.2613 130.852C77.2488 130.881 77.2303 130.908 77.2069 130.929C77.1853 130.953 77.1589 130.972 77.1293 130.985C77.0998 130.997 77.0678 131.003 77.0357 131.002H76.3424C76.278 131.001 76.2166 130.975 76.1711 130.93C76.1256 130.884 76.0995 130.823 76.0984 130.758V128.447C76.1103 128.141 76.0199 127.84 75.8416 127.591C75.7421 127.487 75.6226 127.404 75.4901 127.348C75.3577 127.291 75.2152 127.262 75.0712 127.262C74.9272 127.262 74.7847 127.291 74.6523 127.348C74.5199 127.404 74.4003 127.487 74.3008 127.591C74.1099 127.835 74.0113 128.138 74.0226 128.447V130.758C74.023 130.79 74.0167 130.822 74.0042 130.852C73.9917 130.881 73.9732 130.908 73.9499 130.929C73.9283 130.953 73.9018 130.972 73.8722 130.985C73.8427 130.997 73.8108 131.003 73.7787 131.002H73.0853C73.0209 131.001 72.9595 130.975 72.914 130.93C72.8685 130.884 72.8424 130.823 72.8413 130.758V124.788C72.8404 124.756 72.8464 124.724 72.859 124.694C72.8715 124.665 72.8903 124.638 72.9141 124.616C72.936 124.593 72.9626 124.575 72.9921 124.562C73.0215 124.55 73.0533 124.543 73.0853 124.544H73.7787C73.843 124.545 73.9044 124.571 73.95 124.616C73.9955 124.662 74.0215 124.723 74.0226 124.788V126.727C74.1845 126.566 74.3727 126.434 74.579 126.337C74.8152 126.229 75.0728 126.177 75.3323 126.183C75.6506 126.172 75.9676 126.23 76.2611 126.354C76.495 126.458 76.7005 126.617 76.8603 126.816C77.0157 127.018 77.1266 127.25 77.1855 127.497C77.25 127.763 77.2816 128.036 77.2797 128.31V130.758Z" fill="white"/>
<path d="M84.5514 130.758C84.5503 130.824 84.5236 130.886 84.4772 130.931C84.4308 130.977 84.3683 131.002 84.3032 131.002H83.6141C83.549 131.002 83.4865 130.977 83.44 130.931C83.3936 130.886 83.367 130.824 83.3658 130.758V128.447C83.3793 128.142 83.2904 127.84 83.1133 127.591C83.018 127.478 82.8973 127.39 82.7612 127.333C82.6251 127.275 82.4774 127.251 82.3301 127.262C82.1865 127.256 82.0434 127.282 81.9115 127.339C81.7795 127.396 81.6622 127.482 81.5682 127.591C81.3788 127.835 81.2818 128.139 81.2943 128.447V130.758C81.2932 130.824 81.2666 130.886 81.2201 130.931C81.1737 130.977 81.1112 131.002 81.0461 131.002H80.357C80.2919 131.002 80.2294 130.977 80.183 130.931C80.1365 130.886 80.1099 130.824 80.1088 130.758V126.517C80.1089 126.485 80.1154 126.453 80.1279 126.424C80.1404 126.395 80.1586 126.368 80.1815 126.346C80.2281 126.299 80.2912 126.273 80.357 126.273H81.0461C81.1119 126.273 81.175 126.299 81.2216 126.346C81.2445 126.368 81.2627 126.395 81.2752 126.424C81.2877 126.453 81.2942 126.485 81.2943 126.517V126.727C81.4555 126.567 81.642 126.435 81.8464 126.337C82.0841 126.229 82.3431 126.177 82.604 126.183C82.9223 126.173 83.2391 126.231 83.5328 126.354C83.7667 126.458 83.9722 126.617 84.132 126.817C84.2861 127.018 84.3955 127.25 84.453 127.497C84.5188 127.763 84.5519 128.036 84.5514 128.31V130.758Z" fill="white"/>
<path d="M87.6159 126.183C87.9252 126.179 88.2327 126.231 88.5233 126.337C88.7817 126.433 89.0187 126.578 89.2209 126.765C89.4193 126.945 89.5807 127.161 89.696 127.403C89.8165 127.646 89.8864 127.911 89.9014 128.182C89.9014 128.238 89.9014 128.306 89.9014 128.392V128.897C89.9014 128.978 89.9014 129.046 89.9014 129.102C89.8783 129.373 89.8073 129.639 89.6917 129.885C89.5793 130.126 89.4192 130.342 89.2209 130.519C89.0166 130.703 88.7801 130.848 88.5233 130.947C87.9373 131.152 87.2988 131.152 86.7128 130.947C86.4546 130.848 86.2167 130.703 86.0109 130.519C85.8139 130.341 85.654 130.125 85.5401 129.885C85.4259 129.638 85.3563 129.373 85.3347 129.102C85.3347 129.046 85.3347 128.978 85.3347 128.897C85.3347 128.815 85.3347 128.734 85.3347 128.648C85.3347 128.563 85.3347 128.477 85.3347 128.392C85.3347 128.306 85.3347 128.238 85.3347 128.182C85.3503 127.912 85.4186 127.647 85.5358 127.403C85.777 126.91 86.1983 126.528 86.7128 126.337C87.0019 126.231 87.308 126.179 87.6159 126.183ZM88.7159 128.229C88.7058 128.066 88.6621 127.907 88.5875 127.762C88.5239 127.644 88.4347 127.542 88.3264 127.463C88.2244 127.392 88.1096 127.341 87.9883 127.313C87.7427 127.262 87.4891 127.262 87.2435 127.313C87.1225 127.341 87.0078 127.392 86.9054 127.463C86.7977 127.541 86.7097 127.644 86.6486 127.762C86.5706 127.906 86.5253 128.066 86.5159 128.229C86.5129 128.289 86.5129 128.349 86.5159 128.409C86.5159 128.481 86.5159 128.559 86.5159 128.64C86.5159 128.721 86.5159 128.794 86.5159 128.871C86.5125 128.929 86.5125 128.988 86.5159 129.046C86.5253 129.211 86.5705 129.372 86.6486 129.517C86.7103 129.634 86.7982 129.735 86.9054 129.813C87.0068 129.885 87.1218 129.936 87.2435 129.962C87.4885 130.019 87.7433 130.019 87.9883 129.962C88.1102 129.937 88.2254 129.886 88.3264 129.813C88.4335 129.734 88.5226 129.633 88.5875 129.517C88.662 129.371 88.7057 129.211 88.7159 129.046C88.7214 128.988 88.7214 128.929 88.7159 128.871V128.4C88.7206 128.343 88.7206 128.286 88.7159 128.229Z" fill="white"/>
<path d="M91.7118 129.714C91.7762 129.715 91.8376 129.741 91.8831 129.787C91.9286 129.832 91.9547 129.894 91.9558 129.958V130.758C91.9547 130.823 91.9286 130.884 91.8831 130.93C91.8376 130.975 91.7762 131.001 91.7118 131.002H90.9286C90.8642 131.001 90.8028 130.975 90.7573 130.93C90.7118 130.884 90.6857 130.823 90.6846 130.758V129.958C90.6857 129.894 90.7118 129.832 90.7573 129.787C90.8028 129.741 90.8642 129.715 90.9286 129.714H91.7118ZM91.913 128.922C91.9129 128.954 91.9064 128.986 91.8939 129.015C91.8814 129.045 91.8632 129.071 91.8402 129.094C91.7937 129.14 91.7306 129.166 91.6647 129.166H90.9757C90.9098 129.166 90.8467 129.14 90.8002 129.094C90.7773 129.071 90.759 129.045 90.7465 129.015C90.734 128.986 90.7275 128.954 90.7274 128.922V124.882C90.7274 124.816 90.7536 124.753 90.8001 124.706C90.8467 124.66 90.9098 124.634 90.9757 124.634H91.6647C91.7306 124.634 91.7937 124.66 91.8403 124.706C91.8868 124.753 91.913 124.816 91.913 124.882V128.922Z" fill="white"/>
<path d="M88.4205 63.4509C94.9989 58.5289 99.1205 51.4925 99.1205 43.6815C99.1205 28.7914 84.1662 16.7175 65.7365 16.7175C47.3069 16.7175 32.3525 28.7871 32.3525 43.6815C32.3525 58.5759 47.3026 70.6455 65.7365 70.6455C70.2339 70.6583 74.7015 69.9161 78.9532 68.4499C84.6456 72.3019 94.7121 70.714 98.0334 65.7877C94.0402 66.648 90.3765 65.7877 88.4205 63.4509Z" fill="white"/>
<path d="M65.7237 71.0479C47.0714 71.0479 31.9117 58.7643 31.9117 43.6559C31.9117 28.5475 47.0843 16.2639 65.7237 16.2639C84.3631 16.2639 99.5357 28.5518 99.5357 43.6559C99.5357 51.1288 95.7136 58.332 89.0326 63.4852C90.9286 65.4197 94.2798 66.1302 97.9136 65.3384C97.9953 65.3251 98.0791 65.3359 98.1549 65.3693C98.2307 65.4027 98.2951 65.4574 98.3404 65.5267C98.3857 65.596 98.4099 65.677 98.4101 65.7598C98.4103 65.8426 98.3865 65.9237 98.3416 65.9932C96.7023 68.4243 93.3554 70.2219 89.3964 70.7954C85.4374 71.3689 81.611 70.6756 78.8462 68.8908C74.6203 70.326 70.1867 71.0549 65.7237 71.0479ZM65.7237 17.1199C47.5422 17.1199 32.7677 29.0226 32.7677 43.6559C32.7677 58.2892 47.5551 70.1919 65.7237 70.1919C70.1713 70.2167 74.5914 69.4932 78.7991 68.0519C78.8619 68.0296 78.929 68.0222 78.9951 68.0304C79.0612 68.0385 79.1246 68.062 79.18 68.099C81.748 69.811 85.5315 70.5386 89.3065 69.9908C92.5379 69.52 95.2985 68.2103 96.9805 66.4127C93.2783 66.9306 89.9356 65.9462 88.091 63.7377C88.054 63.6927 88.0265 63.6407 88.0103 63.5847C87.9942 63.5288 87.9895 63.4702 87.9968 63.4124C88.0036 63.3551 88.0219 63.2999 88.0506 63.2498C88.0792 63.1998 88.1177 63.1561 88.1637 63.1214C94.8576 58.1138 98.6968 51.0304 98.6968 43.6944C98.6968 29.0526 83.888 17.1499 65.7237 17.1499V17.1199Z" fill="#455A64"/>
<path d="M37.7496 41.6485C37.7843 40.9373 37.9287 40.2356 38.1776 39.5684C38.4065 38.9262 38.7732 38.3419 39.2519 37.8564C39.7559 37.3555 40.3596 36.9661 41.0238 36.7137C41.8295 36.4129 42.6849 36.2677 43.5447 36.2857C44.3985 36.2731 45.2473 36.4182 46.0485 36.7137C46.7159 36.9623 47.3218 37.3521 47.8247 37.8564C48.2965 38.349 48.6647 38.9311 48.9075 39.5684C49.1605 40.2374 49.3049 40.9425 49.3355 41.6571C49.3355 41.9053 49.3355 42.1835 49.3655 42.4874C49.3955 42.7913 49.3655 43.0994 49.3655 43.4204C49.3655 43.7414 49.3655 44.0539 49.3655 44.3578C49.3655 44.6616 49.3655 44.9356 49.3355 45.1838C49.3008 45.895 49.1564 46.5967 48.9075 47.2639C48.6769 47.9052 48.3104 48.4892 47.8333 48.9759C47.3274 49.4766 46.7204 49.8633 46.0528 50.1101C44.4183 50.6579 42.6497 50.6579 41.0152 50.1101C40.3507 49.8622 39.7466 49.4756 39.2433 48.9759C38.7646 48.4904 38.398 47.9061 38.169 47.2639C37.9201 46.5967 37.7758 45.895 37.741 45.1838C37.741 44.9356 37.7153 44.6616 37.7111 44.3578C37.7068 44.0539 37.7111 43.7414 37.7111 43.4204C37.7111 43.0994 37.7111 42.787 37.7111 42.4874C37.7111 42.1878 37.7367 41.8967 37.7496 41.6485ZM46.6777 41.747C46.6903 41.3379 46.6167 40.9308 46.4615 40.5522C46.3064 40.1735 46.0733 39.8317 45.7774 39.5491C45.4814 39.2665 45.1293 39.0494 44.7439 38.9119C44.3585 38.7743 43.9484 38.7195 43.5404 38.751C43.1325 38.7188 42.7223 38.7731 42.3368 38.9104C41.9513 39.0477 41.5991 39.2649 41.3034 39.5477C41.0076 39.8306 40.7749 40.1727 40.6205 40.5517C40.4662 40.9306 40.3935 41.338 40.4075 41.747C40.3818 42.2477 40.3689 42.8041 40.3689 43.4119C40.3689 44.0196 40.369 44.5803 40.4075 45.0768C40.4079 45.4838 40.4891 45.8867 40.6463 46.2621C40.8035 46.6375 41.0337 46.978 41.3234 47.2639C41.9545 47.7631 42.7357 48.0347 43.5404 48.0347C44.3451 48.0347 45.1263 47.7631 45.7575 47.2639C46.0485 46.9788 46.2798 46.6385 46.4378 46.263C46.5958 45.8875 46.6774 45.4842 46.6777 45.0768C46.7033 44.5803 46.7162 44.0239 46.7162 43.4119C46.7162 42.7998 46.7033 42.2477 46.6777 41.747Z" fill="#347928"/>
<path d="M60.883 49.7677C60.8819 49.9081 60.8256 50.0425 60.7263 50.1418C60.627 50.2411 60.4927 50.2973 60.3523 50.2984H58.8543C58.7139 50.2973 58.5795 50.2411 58.4802 50.1418C58.3809 50.0425 58.3247 49.9081 58.3236 49.7677V44.7644C58.3581 44.0896 58.1635 43.4229 57.7714 42.8726C57.5642 42.6253 57.3004 42.4316 57.0023 42.308C56.7043 42.1843 56.3809 42.1343 56.0594 42.1622C55.7488 42.1473 55.4389 42.2035 55.1533 42.3267C54.8677 42.4498 54.614 42.6365 54.4116 42.8726C53.9904 43.4104 53.7776 44.0822 53.8124 44.7644V49.7677C53.8135 49.838 53.7999 49.9078 53.7727 49.9726C53.7454 50.0374 53.705 50.0959 53.6541 50.1444C53.6053 50.1934 53.5473 50.2323 53.4834 50.2588C53.4194 50.2852 53.3509 50.2987 53.2817 50.2984H51.788C51.6468 50.2985 51.5114 50.2427 51.4112 50.1433C51.311 50.0439 51.2541 49.9089 51.253 49.7677V36.8421C51.2541 36.7006 51.3108 36.5652 51.4109 36.4651C51.511 36.365 51.6464 36.3082 51.788 36.3071H53.286C53.3554 36.3077 53.4241 36.3219 53.488 36.3491C53.5519 36.3763 53.6098 36.4158 53.6584 36.4655C53.7093 36.5139 53.7497 36.5724 53.777 36.6372C53.8042 36.7021 53.8177 36.7718 53.8167 36.8421V41.0365C54.1682 40.6874 54.5745 40.3983 55.0194 40.1805C55.532 39.9467 56.0911 39.8325 56.6543 39.8467C57.3443 39.8243 58.0308 39.9529 58.666 40.2233C59.1683 40.4491 59.6087 40.7926 59.95 41.2248C60.2858 41.6586 60.5251 42.1591 60.6519 42.6929C60.7911 43.2717 60.8601 43.8652 60.8573 44.4605L60.883 49.7677Z" fill="#347928"/>
<path d="M76.612 49.7678C76.6109 49.9082 76.5546 50.0425 76.4553 50.1418C76.356 50.2411 76.2217 50.2974 76.0813 50.2985H74.5833C74.5134 50.2991 74.4442 50.2857 74.3795 50.2592C74.3149 50.2328 74.2561 50.1937 74.2067 50.1443C74.1573 50.0949 74.1183 50.0362 74.0918 49.9715C74.0653 49.9069 74.052 49.8376 74.0526 49.7678V44.7644C74.0871 44.0896 73.8925 43.423 73.5004 42.8727C73.2932 42.6254 73.0294 42.4317 72.7314 42.308C72.4333 42.1843 72.1099 42.1343 71.7884 42.1622C71.4778 42.1473 71.1679 42.2036 70.8823 42.3267C70.5967 42.4498 70.343 42.6366 70.1406 42.8727C69.7194 43.4104 69.5066 44.0822 69.5414 44.7644V49.7678C69.5425 49.8381 69.5289 49.9078 69.5017 49.9727C69.4744 50.0375 69.434 50.096 69.3831 50.1444C69.3343 50.1935 69.2763 50.2324 69.2124 50.2588C69.1484 50.2853 69.0799 50.2988 69.0107 50.2985H67.5127C67.4428 50.2993 67.3735 50.2861 67.3088 50.2596C67.2441 50.2332 67.1853 50.194 67.1361 50.1444C67.0851 50.096 67.0447 50.0375 67.0175 49.9727C66.9902 49.9078 66.9767 49.8381 66.9777 49.7678V40.5829C66.9799 40.4421 67.0372 40.3077 67.1371 40.2086C67.2371 40.1094 67.3719 40.0533 67.5127 40.0522H69.0107C69.1508 40.0544 69.2845 40.111 69.3836 40.2101C69.4826 40.3091 69.5392 40.4428 69.5414 40.5829V41.0366C69.8929 40.6875 70.2992 40.3983 70.7441 40.1806C71.2567 39.9467 71.8158 39.8326 72.3791 39.8467C73.069 39.8244 73.7555 39.9529 74.3907 40.2234C74.893 40.4491 75.3334 40.7926 75.6747 41.2249C76.0105 41.6587 76.2498 42.1592 76.3766 42.6929C76.5158 43.2717 76.5848 43.8652 76.582 44.4606L76.612 49.7678Z" fill="#347928"/>
<path d="M83.2717 39.8553C83.94 39.8459 84.6044 39.9591 85.2319 40.1891C85.7926 40.3999 86.3081 40.715 86.7513 41.1179C87.1749 41.5098 87.5218 41.9771 87.7743 42.496C88.0271 43.0334 88.1725 43.6149 88.2023 44.208C88.21 44.3592 88.21 44.5106 88.2023 44.6617V45.7574C88.2095 45.9 88.2095 46.0428 88.2023 46.1854C88.1537 46.7784 88.0001 47.3581 87.7486 47.8974C87.5028 48.4156 87.1582 48.8808 86.7342 49.267C86.2904 49.6658 85.7748 49.9766 85.2148 50.1829C83.9459 50.6279 82.5633 50.6279 81.2943 50.1829C80.7344 49.9766 80.2188 49.6658 79.7749 49.267C79.3484 48.8831 79.0035 48.4173 78.7606 47.8974C78.5071 47.3588 78.3534 46.7788 78.3069 46.1854C78.3069 46.0698 78.2855 45.92 78.2769 45.7574C78.2684 45.5947 78.2769 45.3979 78.2769 45.2138C78.2769 45.0298 78.2769 44.8457 78.2769 44.6617C78.2769 44.4777 78.2769 44.3279 78.3069 44.208C78.3347 43.6146 78.4802 43.0327 78.7349 42.496C78.9859 41.9762 79.333 41.5086 79.7578 41.1179C80.2137 40.7104 80.7442 40.395 81.32 40.1891C81.9448 39.9597 82.6062 39.8466 83.2717 39.8553ZM85.6557 44.2893C85.6329 43.9348 85.5351 43.589 85.3689 43.275C85.2327 43.0215 85.041 42.8021 84.8082 42.633C84.5887 42.4791 84.3417 42.3687 84.0806 42.3077C83.8147 42.2513 83.5436 42.2226 83.2717 42.2221C82.9998 42.222 82.7286 42.2507 82.4628 42.3077C82.2017 42.3687 81.9547 42.4791 81.7352 42.633C81.5011 42.8019 81.308 43.0214 81.1702 43.275C81.007 43.59 80.9108 43.9353 80.8877 44.2893C80.8877 44.3963 80.8621 44.5247 80.8578 44.6831C80.8535 44.8415 80.8578 45.0041 80.8578 45.1753C80.8578 45.3465 80.8578 45.5134 80.8578 45.6803C80.8607 45.8092 80.8707 45.9378 80.8877 46.0655C80.9108 46.4195 81.007 46.7649 81.1702 47.0799C81.3081 47.3323 81.5012 47.5503 81.7352 47.7176C81.9538 47.8732 82.2011 47.9838 82.4628 48.0429C82.7282 48.1033 82.9995 48.1335 83.2717 48.1328C83.5438 48.133 83.8152 48.1029 84.0806 48.0429C84.3423 47.9838 84.5896 47.8732 84.8082 47.7176C85.0408 47.5501 85.2325 47.3321 85.3689 47.0799C85.5351 46.7659 85.6329 46.4201 85.6557 46.0655C85.6712 45.9378 85.6784 45.8091 85.6771 45.6803V44.6831C85.6778 44.5515 85.6707 44.4201 85.6557 44.2893Z" fill="#347928"/>
<path d="M92.1398 47.508C92.2802 47.5091 92.4146 47.5654 92.5139 47.6647C92.6132 47.764 92.6694 47.8983 92.6705 48.0387V49.7507C92.6694 49.8912 92.6132 50.0255 92.5139 50.1248C92.4146 50.2241 92.2802 50.2804 92.1398 50.2815H90.4278C90.2867 50.2815 90.1512 50.2257 90.051 50.1263C89.9508 50.0269 89.894 49.8919 89.8928 49.7507V48.0387C89.894 47.8976 89.9508 47.7626 90.051 47.6632C90.1512 47.5638 90.2867 47.508 90.4278 47.508H92.1398ZM92.5678 45.796C92.5667 45.9364 92.5104 46.0708 92.4111 46.1701C92.3119 46.2694 92.1775 46.3256 92.0371 46.3267H90.5391C90.3987 46.3256 90.2644 46.2694 90.1651 46.1701C90.0658 46.0708 90.0095 45.9364 90.0084 45.796V37.0392C90.0095 36.8976 90.0662 36.7622 90.1663 36.6621C90.2664 36.562 90.4018 36.5053 90.5434 36.5042H92.0414C92.1109 36.5042 92.1797 36.5183 92.2437 36.5455C92.3076 36.5727 92.3655 36.6125 92.4137 36.6625C92.4647 36.711 92.5051 36.7694 92.5323 36.8343C92.5596 36.8991 92.5731 36.9688 92.5721 37.0392L92.5678 45.796Z" fill="#347928"/>
<path d="M178.647 39.5045C178.797 39.0166 178.044 38.9952 177.791 39.115C176.845 39.543 176.101 40.6515 175.42 41.4048C174.564 42.3635 173.69 43.3165 172.796 44.2638C171.183 46.0015 169.509 47.6878 167.862 49.3998C167.781 49.4911 167.73 49.6043 167.715 49.7248C167.7 49.8454 167.721 49.9677 167.776 50.0761C167.823 50.1762 167.889 50.2659 167.972 50.3394C168.054 50.413 168.151 50.469 168.255 50.5041C168.411 50.5772 168.584 50.602 168.753 50.5753C168.923 50.5486 169.08 50.4716 169.206 50.3543C170.879 48.5866 172.493 46.7676 174.123 44.9615C174.928 44.0712 175.727 43.1767 176.52 42.2779C177.248 41.4776 178.322 40.5488 178.647 39.5045ZM181.374 52.5285C182.422 52.2717 183.83 52.1005 184.691 51.4457C185.093 51.1332 184.485 50.6881 184.198 50.6325C183.184 50.4356 181.934 50.9278 180.946 51.1589C179.683 51.45 178.425 51.7367 177.162 52.0149C174.842 52.52 172.505 52.9522 170.181 53.4102C170.063 53.446 169.958 53.5173 169.882 53.6146C169.805 53.7118 169.76 53.8302 169.753 53.9538C169.736 54.0616 169.741 54.1718 169.767 54.2777C169.794 54.3836 169.842 54.4831 169.907 54.5701C169.991 54.7186 170.118 54.8386 170.27 54.9149C170.423 54.9911 170.594 55.0201 170.763 54.9981C173.147 54.5016 175.51 53.9281 177.881 53.376C179.041 53.0935 180.209 52.811 181.374 52.5285ZM170.828 59.9201C173.147 60.6648 175.484 61.3325 177.821 62.0216C178.968 62.364 180.12 62.6935 181.275 63.0231C182.311 63.3141 183.612 63.8791 184.699 63.7207C185.204 63.6437 184.896 62.9589 184.673 62.7663C183.89 62.0943 182.533 61.9103 181.583 61.6192C180.342 61.2512 179.105 60.8788 177.868 60.4936C175.604 59.7917 173.357 59.0127 171.11 58.2637C170.987 58.233 170.858 58.2413 170.74 58.2873C170.622 58.3332 170.521 58.4148 170.451 58.5205C170.384 58.6064 170.335 58.7047 170.306 58.8098C170.277 58.9149 170.27 59.0246 170.284 59.1326C170.286 59.303 170.339 59.4691 170.436 59.6094C170.532 59.7497 170.669 59.8579 170.828 59.9201Z" fill="#E0E0E0"/>
</svg>
